<mxfile host="app.diagrams.net" modified="2022-06-12T10:23:55.656Z" agent="5.0 (Windows NT 10.0; Win64; x64) AppleWebKit/537.36 (KHTML, like Gecko) Chrome/102.0.5005.115 Safari/537.36" etag="pfNYAoeTAoT5VmjEqtWO" version="20.0.0" type="github">
  <diagram id="13mJiPGsNtQFitDlPd8o" name="Page-1">
    <mxGraphModel dx="1304" dy="541" grid="1" gridSize="10" guides="1" tooltips="1" connect="1" arrows="1" fold="1" page="1" pageScale="1" pageWidth="827" pageHeight="1169" math="0" shadow="0">
      <root>
        <mxCell id="0" />
        <mxCell id="1" parent="0" />
        <mxCell id="CRi8sCL2O51MDjuOwn1v-5" value="" style="swimlane;startSize=0;" vertex="1" parent="1">
          <mxGeometry x="500" y="90" width="200" height="250" as="geometry" />
        </mxCell>
        <mxCell id="CRi8sCL2O51MDjuOwn1v-6" value="Topic 1" style="text;html=1;strokeColor=none;fillColor=none;align=center;verticalAlign=middle;whiteSpace=wrap;rounded=0;" vertex="1" parent="CRi8sCL2O51MDjuOwn1v-5">
          <mxGeometry x="70" y="10" width="60" height="30" as="geometry" />
        </mxCell>
        <mxCell id="CRi8sCL2O51MDjuOwn1v-9" value="P0" style="rounded=0;whiteSpace=wrap;html=1;" vertex="1" parent="CRi8sCL2O51MDjuOwn1v-5">
          <mxGeometry x="30" y="50" width="120" height="50" as="geometry" />
        </mxCell>
        <mxCell id="CRi8sCL2O51MDjuOwn1v-10" value="P1" style="rounded=0;whiteSpace=wrap;html=1;" vertex="1" parent="CRi8sCL2O51MDjuOwn1v-5">
          <mxGeometry x="30" y="110" width="120" height="50" as="geometry" />
        </mxCell>
        <mxCell id="CRi8sCL2O51MDjuOwn1v-11" value="P2" style="rounded=0;whiteSpace=wrap;html=1;" vertex="1" parent="CRi8sCL2O51MDjuOwn1v-5">
          <mxGeometry x="30" y="170" width="120" height="60" as="geometry" />
        </mxCell>
        <mxCell id="CRi8sCL2O51MDjuOwn1v-7" value="" style="swimlane;startSize=0;" vertex="1" parent="1">
          <mxGeometry x="1040" y="90" width="200" height="250" as="geometry" />
        </mxCell>
        <mxCell id="CRi8sCL2O51MDjuOwn1v-8" value="Topic 2" style="text;html=1;strokeColor=none;fillColor=none;align=center;verticalAlign=middle;whiteSpace=wrap;rounded=0;" vertex="1" parent="CRi8sCL2O51MDjuOwn1v-7">
          <mxGeometry x="70" y="10" width="60" height="30" as="geometry" />
        </mxCell>
        <mxCell id="CRi8sCL2O51MDjuOwn1v-12" value="P0" style="rounded=0;whiteSpace=wrap;html=1;" vertex="1" parent="CRi8sCL2O51MDjuOwn1v-7">
          <mxGeometry x="40" y="45" width="120" height="50" as="geometry" />
        </mxCell>
        <mxCell id="CRi8sCL2O51MDjuOwn1v-13" value="P1" style="rounded=0;whiteSpace=wrap;html=1;" vertex="1" parent="CRi8sCL2O51MDjuOwn1v-7">
          <mxGeometry x="40" y="105" width="120" height="50" as="geometry" />
        </mxCell>
        <mxCell id="CRi8sCL2O51MDjuOwn1v-14" value="P2" style="rounded=0;whiteSpace=wrap;html=1;" vertex="1" parent="CRi8sCL2O51MDjuOwn1v-7">
          <mxGeometry x="40" y="165" width="120" height="60" as="geometry" />
        </mxCell>
        <mxCell id="CRi8sCL2O51MDjuOwn1v-16" value="" style="endArrow=classic;html=1;rounded=0;entryX=1;entryY=0.5;entryDx=0;entryDy=0;" edge="1" parent="1" source="CRi8sCL2O51MDjuOwn1v-2" target="CRi8sCL2O51MDjuOwn1v-11">
          <mxGeometry width="50" height="50" relative="1" as="geometry">
            <mxPoint x="860" y="300" as="sourcePoint" />
            <mxPoint x="910" y="250" as="targetPoint" />
          </mxGeometry>
        </mxCell>
        <mxCell id="CRi8sCL2O51MDjuOwn1v-17" value="" style="endArrow=classic;html=1;rounded=0;exitX=1;exitY=0.5;exitDx=0;exitDy=0;" edge="1" parent="1" source="CRi8sCL2O51MDjuOwn1v-2" target="CRi8sCL2O51MDjuOwn1v-14">
          <mxGeometry width="50" height="50" relative="1" as="geometry">
            <mxPoint x="860" y="300" as="sourcePoint" />
            <mxPoint x="910" y="250" as="targetPoint" />
          </mxGeometry>
        </mxCell>
        <mxCell id="CRi8sCL2O51MDjuOwn1v-18" value="" style="endArrow=classic;html=1;rounded=0;entryX=1;entryY=0.5;entryDx=0;entryDy=0;exitX=0;exitY=0.25;exitDx=0;exitDy=0;" edge="1" parent="1" source="CRi8sCL2O51MDjuOwn1v-1" target="CRi8sCL2O51MDjuOwn1v-9">
          <mxGeometry width="50" height="50" relative="1" as="geometry">
            <mxPoint x="860" y="420" as="sourcePoint" />
            <mxPoint x="700" y="340" as="targetPoint" />
          </mxGeometry>
        </mxCell>
        <mxCell id="CRi8sCL2O51MDjuOwn1v-19" value="" style="endArrow=classic;html=1;rounded=0;entryX=0;entryY=0.5;entryDx=0;entryDy=0;exitX=1;exitY=0.25;exitDx=0;exitDy=0;" edge="1" parent="1" source="CRi8sCL2O51MDjuOwn1v-1" target="CRi8sCL2O51MDjuOwn1v-12">
          <mxGeometry width="50" height="50" relative="1" as="geometry">
            <mxPoint x="930" y="190" as="sourcePoint" />
            <mxPoint x="760" y="185" as="targetPoint" />
          </mxGeometry>
        </mxCell>
        <mxCell id="CRi8sCL2O51MDjuOwn1v-20" value="" style="endArrow=classic;html=1;rounded=0;exitX=0;exitY=0.75;exitDx=0;exitDy=0;entryX=1;entryY=0.5;entryDx=0;entryDy=0;" edge="1" parent="1" source="CRi8sCL2O51MDjuOwn1v-1" target="CRi8sCL2O51MDjuOwn1v-10">
          <mxGeometry width="50" height="50" relative="1" as="geometry">
            <mxPoint x="860" y="180" as="sourcePoint" />
            <mxPoint x="910" y="130" as="targetPoint" />
          </mxGeometry>
        </mxCell>
        <mxCell id="CRi8sCL2O51MDjuOwn1v-21" value="" style="endArrow=classic;html=1;rounded=0;entryX=0;entryY=0.5;entryDx=0;entryDy=0;exitX=1;exitY=0.75;exitDx=0;exitDy=0;" edge="1" parent="1" source="CRi8sCL2O51MDjuOwn1v-1" target="CRi8sCL2O51MDjuOwn1v-13">
          <mxGeometry width="50" height="50" relative="1" as="geometry">
            <mxPoint x="870" y="40" as="sourcePoint" />
            <mxPoint x="760" y="245" as="targetPoint" />
          </mxGeometry>
        </mxCell>
        <mxCell id="CRi8sCL2O51MDjuOwn1v-22" value="" style="swimlane;startSize=0;" vertex="1" parent="1">
          <mxGeometry x="770" y="100" width="210" height="240" as="geometry" />
        </mxCell>
        <mxCell id="CRi8sCL2O51MDjuOwn1v-2" value="C2" style="rounded=0;whiteSpace=wrap;html=1;" vertex="1" parent="CRi8sCL2O51MDjuOwn1v-22">
          <mxGeometry x="50" y="155" width="120" height="60" as="geometry" />
        </mxCell>
        <mxCell id="CRi8sCL2O51MDjuOwn1v-1" value="C1" style="rounded=0;whiteSpace=wrap;html=1;" vertex="1" parent="CRi8sCL2O51MDjuOwn1v-22">
          <mxGeometry x="40" y="60" width="120" height="60" as="geometry" />
        </mxCell>
        <mxCell id="CRi8sCL2O51MDjuOwn1v-23" value="Consumer Group 1" style="text;html=1;strokeColor=none;fillColor=none;align=center;verticalAlign=middle;whiteSpace=wrap;rounded=0;" vertex="1" parent="CRi8sCL2O51MDjuOwn1v-22">
          <mxGeometry x="57" y="9" width="133" height="30" as="geometry" />
        </mxCell>
        <mxCell id="CRi8sCL2O51MDjuOwn1v-24" value="Range" style="text;html=1;strokeColor=none;fillColor=none;align=center;verticalAlign=middle;whiteSpace=wrap;rounded=0;" vertex="1" parent="1">
          <mxGeometry x="820" y="20" width="60" height="30" as="geometry" />
        </mxCell>
        <mxCell id="CRi8sCL2O51MDjuOwn1v-25" value="" style="swimlane;startSize=0;" vertex="1" parent="1">
          <mxGeometry x="1330" y="100" width="200" height="250" as="geometry" />
        </mxCell>
        <mxCell id="CRi8sCL2O51MDjuOwn1v-26" value="Topic 1" style="text;html=1;strokeColor=none;fillColor=none;align=center;verticalAlign=middle;whiteSpace=wrap;rounded=0;" vertex="1" parent="CRi8sCL2O51MDjuOwn1v-25">
          <mxGeometry x="70" y="10" width="60" height="30" as="geometry" />
        </mxCell>
        <mxCell id="CRi8sCL2O51MDjuOwn1v-27" value="P0" style="rounded=0;whiteSpace=wrap;html=1;" vertex="1" parent="CRi8sCL2O51MDjuOwn1v-25">
          <mxGeometry x="30" y="50" width="120" height="50" as="geometry" />
        </mxCell>
        <mxCell id="CRi8sCL2O51MDjuOwn1v-28" value="P1" style="rounded=0;whiteSpace=wrap;html=1;" vertex="1" parent="CRi8sCL2O51MDjuOwn1v-25">
          <mxGeometry x="30" y="110" width="120" height="50" as="geometry" />
        </mxCell>
        <mxCell id="CRi8sCL2O51MDjuOwn1v-29" value="P2" style="rounded=0;whiteSpace=wrap;html=1;" vertex="1" parent="CRi8sCL2O51MDjuOwn1v-25">
          <mxGeometry x="30" y="170" width="120" height="60" as="geometry" />
        </mxCell>
        <mxCell id="CRi8sCL2O51MDjuOwn1v-30" value="" style="swimlane;startSize=0;" vertex="1" parent="1">
          <mxGeometry x="1870" y="100" width="200" height="250" as="geometry" />
        </mxCell>
        <mxCell id="CRi8sCL2O51MDjuOwn1v-31" value="Topic 2" style="text;html=1;strokeColor=none;fillColor=none;align=center;verticalAlign=middle;whiteSpace=wrap;rounded=0;" vertex="1" parent="CRi8sCL2O51MDjuOwn1v-30">
          <mxGeometry x="70" y="10" width="60" height="30" as="geometry" />
        </mxCell>
        <mxCell id="CRi8sCL2O51MDjuOwn1v-32" value="P0" style="rounded=0;whiteSpace=wrap;html=1;" vertex="1" parent="CRi8sCL2O51MDjuOwn1v-30">
          <mxGeometry x="40" y="45" width="120" height="50" as="geometry" />
        </mxCell>
        <mxCell id="CRi8sCL2O51MDjuOwn1v-33" value="P1" style="rounded=0;whiteSpace=wrap;html=1;" vertex="1" parent="CRi8sCL2O51MDjuOwn1v-30">
          <mxGeometry x="40" y="105" width="120" height="50" as="geometry" />
        </mxCell>
        <mxCell id="CRi8sCL2O51MDjuOwn1v-34" value="P2" style="rounded=0;whiteSpace=wrap;html=1;" vertex="1" parent="CRi8sCL2O51MDjuOwn1v-30">
          <mxGeometry x="40" y="165" width="120" height="60" as="geometry" />
        </mxCell>
        <mxCell id="CRi8sCL2O51MDjuOwn1v-35" value="" style="endArrow=classic;html=1;rounded=0;entryX=1;entryY=0.5;entryDx=0;entryDy=0;exitX=0;exitY=0.5;exitDx=0;exitDy=0;" edge="1" parent="1" source="CRi8sCL2O51MDjuOwn1v-43" target="CRi8sCL2O51MDjuOwn1v-29">
          <mxGeometry width="50" height="50" relative="1" as="geometry">
            <mxPoint x="1690" y="310" as="sourcePoint" />
            <mxPoint x="1740" y="260" as="targetPoint" />
          </mxGeometry>
        </mxCell>
        <mxCell id="CRi8sCL2O51MDjuOwn1v-48" value="3" style="edgeLabel;html=1;align=center;verticalAlign=middle;resizable=0;points=[];" vertex="1" connectable="0" parent="CRi8sCL2O51MDjuOwn1v-35">
          <mxGeometry x="-0.2268" relative="1" as="geometry">
            <mxPoint as="offset" />
          </mxGeometry>
        </mxCell>
        <mxCell id="CRi8sCL2O51MDjuOwn1v-36" value="" style="endArrow=classic;html=1;rounded=0;exitX=1;exitY=0.5;exitDx=0;exitDy=0;" edge="1" parent="1" source="CRi8sCL2O51MDjuOwn1v-42" target="CRi8sCL2O51MDjuOwn1v-34">
          <mxGeometry width="50" height="50" relative="1" as="geometry">
            <mxPoint x="1690" y="310" as="sourcePoint" />
            <mxPoint x="1740" y="260" as="targetPoint" />
          </mxGeometry>
        </mxCell>
        <mxCell id="CRi8sCL2O51MDjuOwn1v-37" value="" style="endArrow=classic;html=1;rounded=0;entryX=1;entryY=0.5;entryDx=0;entryDy=0;exitX=0;exitY=0.25;exitDx=0;exitDy=0;" edge="1" parent="1" source="CRi8sCL2O51MDjuOwn1v-43" target="CRi8sCL2O51MDjuOwn1v-27">
          <mxGeometry width="50" height="50" relative="1" as="geometry">
            <mxPoint x="1690" y="430" as="sourcePoint" />
            <mxPoint x="1530" y="350" as="targetPoint" />
          </mxGeometry>
        </mxCell>
        <mxCell id="CRi8sCL2O51MDjuOwn1v-38" value="4" style="endArrow=classic;html=1;rounded=0;entryX=0;entryY=0.5;entryDx=0;entryDy=0;exitX=1;exitY=0.5;exitDx=0;exitDy=0;" edge="1" parent="1" source="CRi8sCL2O51MDjuOwn1v-42" target="CRi8sCL2O51MDjuOwn1v-32">
          <mxGeometry width="50" height="50" relative="1" as="geometry">
            <mxPoint x="1760" y="200" as="sourcePoint" />
            <mxPoint x="1590" y="195" as="targetPoint" />
          </mxGeometry>
        </mxCell>
        <mxCell id="CRi8sCL2O51MDjuOwn1v-39" value="" style="endArrow=classic;html=1;rounded=0;exitX=0;exitY=0.5;exitDx=0;exitDy=0;entryX=1;entryY=0.5;entryDx=0;entryDy=0;" edge="1" parent="1" source="CRi8sCL2O51MDjuOwn1v-42" target="CRi8sCL2O51MDjuOwn1v-28">
          <mxGeometry width="50" height="50" relative="1" as="geometry">
            <mxPoint x="1690" y="190" as="sourcePoint" />
            <mxPoint x="1740" y="140" as="targetPoint" />
          </mxGeometry>
        </mxCell>
        <mxCell id="CRi8sCL2O51MDjuOwn1v-47" value="2" style="edgeLabel;html=1;align=center;verticalAlign=middle;resizable=0;points=[];" vertex="1" connectable="0" parent="CRi8sCL2O51MDjuOwn1v-39">
          <mxGeometry x="-0.141" y="-3" relative="1" as="geometry">
            <mxPoint y="-1" as="offset" />
          </mxGeometry>
        </mxCell>
        <mxCell id="CRi8sCL2O51MDjuOwn1v-40" value="" style="endArrow=classic;html=1;rounded=0;entryX=0;entryY=0.5;entryDx=0;entryDy=0;exitX=1;exitY=0.5;exitDx=0;exitDy=0;" edge="1" parent="1" source="CRi8sCL2O51MDjuOwn1v-43" target="CRi8sCL2O51MDjuOwn1v-33">
          <mxGeometry width="50" height="50" relative="1" as="geometry">
            <mxPoint x="1700" y="50" as="sourcePoint" />
            <mxPoint x="1590" y="255" as="targetPoint" />
          </mxGeometry>
        </mxCell>
        <mxCell id="CRi8sCL2O51MDjuOwn1v-49" value="5" style="edgeLabel;html=1;align=center;verticalAlign=middle;resizable=0;points=[];" vertex="1" connectable="0" parent="CRi8sCL2O51MDjuOwn1v-40">
          <mxGeometry x="-0.1933" y="2" relative="1" as="geometry">
            <mxPoint as="offset" />
          </mxGeometry>
        </mxCell>
        <mxCell id="CRi8sCL2O51MDjuOwn1v-41" value="" style="swimlane;startSize=0;" vertex="1" parent="1">
          <mxGeometry x="1600" y="110" width="210" height="240" as="geometry" />
        </mxCell>
        <mxCell id="CRi8sCL2O51MDjuOwn1v-42" value="C2" style="rounded=0;whiteSpace=wrap;html=1;" vertex="1" parent="CRi8sCL2O51MDjuOwn1v-41">
          <mxGeometry x="40" y="155" width="120" height="60" as="geometry" />
        </mxCell>
        <mxCell id="CRi8sCL2O51MDjuOwn1v-43" value="C1" style="rounded=0;whiteSpace=wrap;html=1;" vertex="1" parent="CRi8sCL2O51MDjuOwn1v-41">
          <mxGeometry x="40" y="60" width="120" height="60" as="geometry" />
        </mxCell>
        <mxCell id="CRi8sCL2O51MDjuOwn1v-44" value="Consumer Group 1" style="text;html=1;strokeColor=none;fillColor=none;align=center;verticalAlign=middle;whiteSpace=wrap;rounded=0;" vertex="1" parent="CRi8sCL2O51MDjuOwn1v-41">
          <mxGeometry x="57" y="9" width="133" height="30" as="geometry" />
        </mxCell>
        <mxCell id="CRi8sCL2O51MDjuOwn1v-45" value="Round Robin" style="text;html=1;strokeColor=none;fillColor=none;align=center;verticalAlign=middle;whiteSpace=wrap;rounded=0;" vertex="1" parent="1">
          <mxGeometry x="1650" y="30" width="140" height="30" as="geometry" />
        </mxCell>
        <mxCell id="CRi8sCL2O51MDjuOwn1v-46" value="1" style="text;html=1;align=center;verticalAlign=middle;resizable=0;points=[];autosize=1;strokeColor=none;fillColor=none;" vertex="1" parent="1">
          <mxGeometry x="1550" y="160" width="20" height="20" as="geometry" />
        </mxCell>
        <mxCell id="CRi8sCL2O51MDjuOwn1v-50" value="6" style="text;html=1;align=center;verticalAlign=middle;resizable=0;points=[];autosize=1;strokeColor=none;fillColor=none;" vertex="1" parent="1">
          <mxGeometry x="1820" y="280" width="20" height="20" as="geometry" />
        </mxCell>
      </root>
    </mxGraphModel>
  </diagram>
</mxfile>
